<svg width="23" height="23" viewBox="0 0 23 23" fill="none" xmlns="http://www.w3.org/2000/svg">
<path d="M11.5 1.91663C10.2415 1.91663 8.99531 2.16451 7.83261 2.64611C6.66991 3.12772 5.61345 3.83362 4.72355 4.72352C2.92633 6.52074 1.91666 8.9583 1.91666 11.5C1.90828 13.7129 2.6745 15.859 4.08249 17.5662L2.16583 19.4829C2.03285 19.6176 1.94277 19.7888 1.90695 19.9747C1.87114 20.1606 1.89119 20.3529 1.96458 20.5275C2.04417 20.6999 2.17321 20.8448 2.33531 20.9437C2.4974 21.0427 2.68524 21.0913 2.87499 21.0833H11.5C14.0417 21.0833 16.4792 20.0736 18.2764 18.2764C20.0737 16.4792 21.0833 14.0416 21.0833 11.5C21.0833 8.9583 20.0737 6.52074 18.2764 4.72352C16.4792 2.9263 14.0417 1.91663 11.5 1.91663ZM11.5 19.1666H5.18458L6.07583 18.2754C6.25432 18.0958 6.3545 17.8529 6.3545 17.5997C6.3545 17.3466 6.25432 17.1037 6.07583 16.9241C4.82097 15.6707 4.03954 14.0209 3.86466 12.2559C3.68978 10.4909 4.13227 8.71984 5.11675 7.2445C6.10123 5.76916 7.56679 4.6808 9.26374 4.16485C10.9607 3.6489 12.784 3.73727 14.4231 4.41492C16.0622 5.09256 17.4156 6.31756 18.2528 7.88119C19.09 9.44482 19.3592 11.2504 19.0144 12.9902C18.6697 14.73 17.7323 16.2965 16.3621 17.4227C14.9919 18.5489 13.2736 19.1652 11.5 19.1666Z" fill="black" fill-opacity="0.8"/>
</svg>
