<svg width="24" height="15" viewBox="0 0 24 15" fill="none" xmlns="http://www.w3.org/2000/svg">
<g clip-path="url(#clip0_9_118)">
<path d="M8 7.5C8 6.67157 7.32843 6 6.5 6C5.67157 6 5 6.67157 5 7.5C5 8.32843 5.67157 9 6.5 9C7.32843 9 8 8.32843 8 7.5Z" fill="black"/>
<path d="M14 7.5C14 6.67157 13.3284 6 12.5 6C11.6716 6 11 6.67157 11 7.5C11 8.32843 11.6716 9 12.5 9C13.3284 9 14 8.32843 14 7.5Z" fill="black"/>
<path d="M20 7.5C20 6.67157 19.3284 6 18.5 6C17.6716 6 17 6.67157 17 7.5C17 8.32843 17.6716 9 18.5 9C19.3284 9 20 8.32843 20 7.5Z" fill="black"/>
</g>
<defs>
<clipPath id="clip0_9_118">
<rect width="15" height="24" fill="white" transform="translate(0 15) rotate(-90)"/>
</clipPath>
</defs>
</svg>
