<?xml version="1.0" encoding="UTF-8" standalone="no"?>
<!DOCTYPE svg PUBLIC "-//W3C//DTD SVG 1.1//EN" "http://www.w3.org/Graphics/SVG/1.1/DTD/svg11.dtd">
<svg width="100%" height="100%" viewBox="0 0 5556 5556" version="1.1" xmlns="http://www.w3.org/2000/svg" xmlns:xlink="http://www.w3.org/1999/xlink" xml:space="preserve" xmlns:serif="http://www.serif.com/" style="fill-rule:evenodd;clip-rule:evenodd;stroke-linecap:round;stroke-linejoin:round;stroke-miterlimit:1.5;">
    <g transform="matrix(1.85185,0,0,1.85185,0,0)">
        <rect id="Иконка" x="0" y="0" width="3000" height="3000" style="fill-opacity:0;"/>
        <g id="Иконка1" serif:id="Иконка">
            <g id="Цветовая-часть-календаря" serif:id="Цветовая часть календаря">
                <g id="Фон-календаря" serif:id="Фон календаря" transform="matrix(1,0,0,0.918502,0,86.6608)">
                    <g transform="matrix(1,0,0,1.11565,0,-129.612)" fill="#fff">
                        <path d="M1070.01,1312.77C1152.51,1312.77 1245.66,1301.9 1324.1,1321.51C1396.13,1339.52 1594.14,1314.61 1685.02,1314.61C1758.16,1314.61 1828.69,1326.59 1902.6,1326.59C1904.64,1326.59 1914.58,1325.26 1915.86,1326.59C1917.44,1328.22 1912.34,1341.26 1912.34,1344.28C1912.34,1403.34 1924.13,1458.2 1924.13,1518.68C1924.13,1547.83 1915.92,1567.32 1915.92,1596.6C1915.92,1597.26 1927.84,1629.97 1919.35,1625.73C1905.79,1618.95 1873.35,1608.32 1900.68,1608.32C1910.31,1608.32 1931.14,1635.47 1921.87,1629.36C1913.94,1624.14 1903.8,1617.62 1897.46,1614.55C1886.02,1609 1875.03,1607.48 1863.29,1599.74C1827.39,1576.09 1868.44,1499.34 1806.29,1462.82C1801.38,1459.94 1790.64,1453.26 1783.99,1456.52C1773.45,1461.67 1776.88,1500.95 1776.88,1512.58C1776.88,1512.87 1776.88,1512.02 1776.88,1511.74C1776.88,1503.79 1777.55,1496.36 1780.38,1488.77C1784.29,1478.31 1790.04,1466.16 1796.02,1456.94C1796.6,1456.05 1798.15,1449.51 1796.93,1448.34C1788.42,1440.24 1757.31,1450.05 1747.86,1452.13C1691.18,1464.59 1620.61,1456.1 1563.55,1447.57C1534.76,1443.27 1468.11,1450.48 1446.99,1429.03C1442.51,1424.49 1495.69,1434.7 1494.12,1435.16C1462.99,1444.36 1406.53,1436.14 1375.35,1433.56C1367.95,1432.95 1084.34,1412.92 1077.1,1419.91C1077.07,1419.94 1079.13,1427.37 1079.78,1428.63C1092.13,1452.57 1085.04,1535.07 1077.6,1556.39C1056.84,1615.87 1073.24,1826.08 1099.98,1877.92C1124.67,1925.82 1359.28,1909.09 1424.82,1909.09C1480.79,1909.09 1561.57,1899.43 1607.79,1921.82C1610,1922.89 1624.71,1923.62 1624.69,1921.05C1624.55,1905.05 1602.49,1861.4 1614.89,1836.24C1629.75,1806.07 1637.8,1780.2 1652.32,1751.61C1659.61,1737.26 1675.74,1727.89 1680.96,1717.28C1708.38,1661.61 1788.91,1666.39 1823.63,1631.1C1825.49,1629.21 1827.07,1628.08 1827.07,1625.89C1827.07,1624.4 1827.73,1620.94 1827.07,1619.65C1818.05,1602.17 1682.13,1604.22 1670.77,1604.22C1644.11,1604.22 1513.77,1598.24 1497.56,1625.67C1487.67,1642.42 1493.28,1673.4 1493.28,1691.57L1493.28,1871.01C1493.28,1874.6 1494.99,1864.03 1495.68,1860.5C1497.71,1850.15 1500.63,1839.99 1502.65,1829.64C1508.39,1800.26 1521.32,1776.5 1539.51,1752.77C1582.06,1697.25 1623.6,1640.57 1666.63,1585.51C1679.51,1569.02 1695.68,1552.93 1712.35,1540.31C1718.1,1535.97 1724.22,1532.38 1730.35,1528.65C1733.48,1526.75 1744.6,1525.68 1740.93,1525.68C1730.98,1525.68 1726.81,1526.11 1718.02,1532.79C1681.59,1560.52 1651.5,1596.97 1614.4,1624.78C1560.14,1665.44 1497.98,1697.83 1446.75,1742.32C1417.12,1768.05 1393.39,1802.93 1362.99,1827.13C1362.64,1827.41 1348.68,1835.54 1347.69,1831.97C1329.77,1767.53 1524.67,1484.44 1543.26,1484.44C1548.03,1484.44 1535.18,1489.62 1531.81,1492.98C1522.66,1502.1 1514.21,1511.68 1505.86,1521.46C1483.61,1547.49 1461.01,1573.55 1438.57,1599.53C1385.55,1660.89 1343.96,1726.03 1299.66,1792.63C1296.66,1797.15 1291.78,1814.09 1283.29,1809.85C1280.12,1808.26 1282.1,1782.48 1282.37,1779.03C1287.6,1712.53 1354.73,1584.03 1396.09,1521.76C1397.18,1520.13 1412.34,1497.86 1410.38,1495.63C1406.17,1490.85 1383.47,1518.08 1381.34,1521.06C1332.55,1589.2 1282.61,1738.73 1236.5,1784.15C1218.78,1801.61 1194.75,1746.17 1190.32,1737.3C1168.86,1694.39 1162.04,1636.11 1175.62,1588.72C1186.77,1549.78 1187.44,1524.22 1224.07,1524.22C1238.74,1524.22 1253.17,1516.12 1268.12,1516.12C1268.73,1516.12 1270.54,1516.12 1269.93,1516.12C1253.13,1516.12 1240.28,1525.31 1225.23,1531.25C1182.76,1547.99 1198.33,1560.88 1202.21,1605.6C1206.84,1658.83 1224.98,1717.02 1224.98,1769.69C1224.98,1781.41 1227.32,1813.84 1209.7,1813.84C1199.17,1813.84 1189.29,1816.75 1184.41,1805.15C1145.97,1713.92 1460.7,1568.79 1531.94,1546.07C1575.35,1532.23 1636.86,1517.54 1682.8,1517.54C1705.8,1517.54 1683.29,1558.84 1663.62,1558.84C1659.17,1558.84 1654.12,1559.69 1657.03,1552.64C1659.28,1547.18 1664.26,1541.88 1667.86,1537.32C1673.92,1529.64 1678.84,1525.29 1678.84,1515.59" style="fill:rgb(172,172,172);"/>
                        <path d="M1011.94,1369.93C996.855,1355.34 987.509,1335.11 987.509,1312.77C987.509,1268.34 1024.48,1232.26 1070.01,1232.26C1159.18,1232.26 1259.79,1222.32 1344.57,1243.52C1412.54,1260.51 1599.28,1234.1 1685.02,1234.1C1758.16,1234.1 1828.69,1246.08 1902.6,1246.08C1901.56,1246.08 1897.61,1246.24 1897.61,1246.24C1897.61,1246.24 1931.17,1246.87 1939.01,1249.17C1956.37,1254.27 1968.01,1263.22 1975.84,1271.31C1985.01,1280.78 1994.01,1294.24 1997.42,1313.5C1998.25,1318.18 1996.46,1334.32 1994.87,1346.46C1995.13,1404.69 2006.63,1458.95 2006.63,1518.68C2006.63,1544.45 2000.21,1562.67 1998.73,1586.78C2000.74,1594.1 2002.97,1602.95 2003.91,1609.33C2004.21,1610.2 2004.43,1610.96 2004.58,1611.59C2009.46,1632.45 2005.38,1648.72 2000.69,1660.09C1991.71,1681.88 1975.98,1696.87 1953.89,1705.25C1942.98,1709.4 1914,1721.31 1875.7,1696.08L1874.21,1695.09C1852.91,1713.01 1824.67,1725.82 1794.01,1736.48C1785.54,1739.43 1776.87,1742.33 1768.54,1745.78C1763.87,1747.71 1757.66,1747.4 1755.32,1752.16C1749.99,1762.97 1730.52,1784.54 1724.37,1791.21C1712.98,1814.26 1705.57,1835.72 1694.76,1859.43C1698.03,1872.6 1707.1,1910.12 1707.18,1920.38C1707.38,1944.45 1698.6,1967.94 1673.82,1986.1C1665.51,1992.19 1648.74,2001.3 1626.33,2002.97C1605.79,2004.5 1577.44,1997 1571.11,1993.93C1557.49,1987.33 1538.41,1987.79 1518.98,1987.56C1486.35,1987.18 1452.52,1989.6 1424.82,1989.6C1368.36,1989.6 1195.46,1998.94 1114.91,1977.14C1067.34,1964.27 1038.84,1938.48 1026.28,1914.11C1010.29,1883.1 994.485,1805.25 988.686,1725.74C982.897,1646.35 987.109,1565.95 999.507,1530.44C1003.67,1518.52 1002.79,1456.61 1002.79,1456.61C1002.79,1456.61 1004.92,1462.56 1006.09,1464.82C1004.32,1461.4 998.044,1443.29 997.094,1439.57C988.156,1404.51 1002.52,1380.96 1011.94,1369.93Z" style="fill:rgb(112,149,222);"/>
                    </g>
                    <g transform="matrix(0.996182,0,0,1.27062,7.35411,-303.209)">
                        <path d="M1077.21,1161.41C1102.04,1161.41 1093.72,1122.48 1111.91,1113.32C1127.53,1105.45 1162.62,1108.55 1174.02,1096.03C1177.97,1091.69 1214.98,1095.27 1220.68,1095.27C1290.56,1095.27 1359.75,1093.91 1428.38,1085.26C1472.43,1079.71 1518.12,1087.65 1562.39,1082.91C1619.54,1076.78 1677.97,1078.84 1735.9,1078.84C1753.05,1078.84 1769.29,1073.73 1787.34,1076.18C1813.19,1079.69 1828.3,1089.32 1850.73,1093.06C1858.23,1094.31 1870.65,1091.11 1877.27,1094.42C1877.69,1094.63 1878.19,1094.72 1878.52,1095.04C1881.91,1098.44 1875.69,1110.17 1877.88,1114.7C1878.16,1115.28 1879.77,1115.91 1880.33,1115.91C1912.24,1115.91 1894.04,1135.58 1902.24,1143.15C1906.74,1147.32 1913.59,1150.14 1918.15,1154.77C1920.95,1157.61 1925.95,1163.82 1925.95,1163.82C1925.95,1163.82 1920.65,1161.52 1918.08,1160.22C1906.57,1154.42 1856.88,1178.83 1838.24,1178.83C1778.03,1178.83 1722.8,1169.21 1662.72,1169.21C1560.79,1169.21 1457.58,1171.24 1354.51,1171.24C1330,1171.24 1304,1181.86 1280.32,1176.82C1252.09,1170.81 1222.71,1162.75 1195.35,1155.93C1182.35,1152.69 1169.23,1162.08 1158.63,1162.08" style="fill:rgb(172,172,172);"/>
                        <path d="M1127.44,1037.42C1133.56,1033.8 1140.84,1030.53 1149.5,1028.02C1163.56,1023.95 1223.37,1024.63 1223.37,1024.63C1223.37,1024.63 1221.3,1024.58 1220.68,1024.58C1286.49,1024.58 1351.65,1023.48 1416.28,1015.33C1460.91,1009.7 1507.21,1017.58 1552.07,1012.77C1612.63,1006.28 1674.52,1008.14 1735.9,1008.14C1757.36,1008.14 1777.77,1003.3 1800.35,1006.37C1827.08,1010 1842.9,1019.59 1865.95,1023.55C1879.45,1024.68 1901.32,1027.09 1914.12,1031.44C1920.34,1034.64 1934.86,1042.51 1941.5,1049.15C1944.55,1052.2 1947.2,1057.97 1949.44,1064.95C1951.86,1066.72 1954.03,1068.5 1956.01,1070.21C1964.63,1077.68 1970.69,1090.72 1974.81,1103.37C1977.4,1105.45 1979.79,1107.51 1981.55,1109.29C1986.03,1113.84 1994.17,1123.73 1994.17,1123.73C2015.65,1150.37 2013.22,1186.06 1988.26,1210.39C1968.46,1229.69 1938.49,1237.94 1910.09,1233.19C1889.44,1239.1 1851.14,1249.52 1838.24,1249.52C1778.03,1249.52 1722.8,1239.9 1662.72,1239.9C1560.79,1239.9 1457.58,1241.93 1354.51,1241.93C1343.89,1241.93 1333.04,1245.47 1322.23,1246.89C1301.13,1249.67 1280.32,1249.67 1260.28,1245.4C1236.63,1240.37 1212.2,1233.98 1188.72,1228.01C1178.58,1230.31 1165.96,1232.77 1158.63,1232.77C1144.72,1232.77 1131.61,1229.83 1120.09,1224.63C1107.84,1229.51 1093.65,1232.1 1077.21,1232.1C1031.51,1232.1 994.396,1200.42 994.396,1161.41C994.396,1140.6 1004.95,1121.88 1021.74,1108.94C1024.42,1101.55 1027.71,1093.36 1030.59,1088.57C1040.09,1072.7 1053.47,1060.67 1069.82,1052.44C1081.57,1046.52 1113.03,1040.13 1127.44,1037.42ZM1875.71,1186.4L1875.64,1186.46L1880.33,1186.6C1879.01,1186.6 1877.45,1186.54 1875.71,1186.4ZM1958.3,1105.88L1957.99,1106.18C1959.1,1114 1959.63,1119.37 1959.63,1119.37C1959.63,1119.37 1959.2,1113.05 1958.3,1105.88ZM1955.56,1090.83L1956.72,1097.71L1957.1,1097.88C1956.66,1095.28 1956.15,1092.84 1955.56,1090.83ZM1073.69,1090.79L1077.21,1090.72C1076.02,1090.72 1074.85,1090.74 1073.69,1090.79ZM1914.12,1031.44L1911.19,1029.95C1911.19,1029.95 1916.57,1032.15 1919.13,1033.43C1917.7,1032.71 1916.01,1032.04 1914.12,1031.44ZM1864.58,1023.44C1860.44,1022.96 1854.12,1022.69 1854.12,1022.69C1854.12,1022.69 1858.28,1022.91 1864.58,1023.44Z" style="fill:rgb(80,117,190);"/>
                    </g>
                    <path d="M1110.28,1100.71L1110.28,1103.96C1110.28,1104.44 1110.28,1105.89 1110.28,1105.41" style="fill:rgb(172,172,172);"/>
                    <path d="M1102.55,1149.49C1064.03,1148.07 1027.78,1133.47 1027.78,1105.41L1027.8,1104.47L1027.78,1103.96L1027.78,1100.71C1027.78,1051.14 1064.75,1010.89 1110.28,1010.89C1155.81,1010.89 1192.78,1051.14 1192.78,1100.71L1192.78,1103.96L1192.76,1104.47L1192.78,1105.41C1192.78,1135.35 1151.53,1149.96 1110.28,1149.6L1102.55,1149.49Z" style="fill:rgb(80,117,190);"/>
                </g>
                <path id="Тень" d="M1624.06,1421.67L1984.01,1696.33L1864.95,1714.38L1748.53,1777.98L1705.08,1918.87L1692.82,1978.42L1386.01,1779.12L1405.3,1447.3L1624.06,1421.67Z" style="fill:rgb(96,133,206);"/>
            </g>
            <g transform="matrix(1,0,0,1,-7875.53,24.7253)" fill="#dddeea">
                <text x="9200.56px" y="1758.65px" style="font-family:'VarelaRound', 'Varela Round';font-size:525px;">E</text>
            </g>
            <g id="Рамка-календаря" serif:id="Рамка календаря">
                <g transform="matrix(1,0,0,1,-12000,0)">
                    <path d="M13726.8,2000L13148.1,2000C13066.4,2000 13000,1933.64 13000,1851.91L13000,1148.09C13000,1066.36 13066.4,1000 13148.1,1000L13851.9,1000C13933.6,1000 14000,1066.36 14000,1148.09L14000,1726.79C13970.6,1709.75 13936.4,1700 13900,1700C13789.6,1700 13700,1789.62 13700,1900C13700,1936.41 13709.8,1970.57 13726.8,2000Z" style="fill:none;stroke:black;stroke-width:45px;"/>
                </g>
                <g transform="matrix(1,0,0,1,-12000,0)">
                    <path d="M13000,1244.63L14000,1250" style="fill:none;stroke:black;stroke-width:45px;"/>
                </g>
            </g>
            <g id="Галочка" transform="matrix(1.25,0,0,1.25,-475,-475)">
                <g transform="matrix(0.988624,0,0,0.988624,-7983.18,-67.0368)">
                    <circle cx="9996.9" cy="1989.67" r="101.151" style="stroke:black;stroke-width:24.28px;"/>
                </g>
                <g transform="matrix(0.909091,0,0,1,-7104.55,-25)">
                    <path d="M9850,1925L9900,1975L9960,1875" style="fill:none;stroke:white;stroke-width:25.11px;"/>
                </g>
                <g transform="matrix(0.8,0,0,0.8,-9220,380)">
                    <path d="M13884.3,1950.21L13962.5,1837.5" style="fill:none;stroke:white;stroke-width:30px;"/>
                </g>
                <g transform="matrix(0.8,0,0,0.8,-9220,380)">
                    <path d="M13837.5,1900L13903.7,1941.9" style="fill:none;stroke:white;stroke-width:30px;"/>
                </g>
            </g>
            <g id="Дырки">
                <g transform="matrix(1.15136,0,0,1.15136,-13953.5,-205.138)">
                    <circle cx="13204.8" cy="1155.27" r="54.283" style="fill:white;stroke:black;stroke-width:26.06px;"/>
                </g>
                <g transform="matrix(1.15136,0,0,1.15136,-13703.5,-205.138)">
                    <circle cx="13204.8" cy="1155.27" r="54.283" style="fill:white;stroke:black;stroke-width:26.06px;"/>
                </g>
                <g transform="matrix(1.15136,0,0,1.15136,-13453.5,-205.138)">
                    <circle cx="13204.8" cy="1155.27" r="54.283" style="fill:white;stroke:black;stroke-width:26.06px;"/>
                </g>
            </g>
        </g>
    </g>
</svg>
