<svg width="38" height="38" viewBox="0 0 38 38" fill="#fff" xmlns="http://www.w3.org/2000/svg">
<path d="M3.16667 9.4921C3.16667 8.62127 3.87283 7.91669 4.74208 7.91669H17.4246C17.8424 7.91669 18.2431 8.08267 18.5386 8.37812C18.834 8.67356 19 9.07428 19 9.4921C19 9.90993 18.834 10.3106 18.5386 10.6061C18.2431 10.9015 17.8424 11.0675 17.4246 11.0675H4.74208C4.32426 11.0675 3.92354 10.9015 3.6281 10.6061C3.33265 10.3106 3.16667 9.90993 3.16667 9.4921Z" fill="black"/>
<path d="M3.16667 19C3.16667 18.1292 3.87283 17.4246 4.74208 17.4246H33.2579C33.6757 17.4246 34.0765 17.5906 34.3719 17.886C34.6674 18.1815 34.8333 18.5822 34.8333 19C34.8333 19.4179 34.6674 19.8186 34.3719 20.114C34.0765 20.4095 33.6757 20.5755 33.2579 20.5755H4.74208C4.32426 20.5755 3.92354 20.4095 3.6281 20.114C3.33265 19.8186 3.16667 19.4179 3.16667 19Z" fill="black"/>
<path d="M4.74208 26.9325C4.32426 26.9325 3.92354 27.0985 3.6281 27.3939C3.33265 27.6894 3.16667 28.0901 3.16667 28.5079C3.16667 28.9257 3.33265 29.3265 3.6281 29.6219C3.92354 29.9173 4.32426 30.0833 4.74208 30.0833H23.7579C24.1757 30.0833 24.5765 29.9173 24.8719 29.6219C25.1674 29.3265 25.3333 28.9257 25.3333 28.5079C25.3333 28.0901 25.1674 27.6894 24.8719 27.3939C24.5765 27.0985 24.1757 26.9325 23.7579 26.9325H4.74208Z" fill="black"/>
</svg>
