<svg width="38" height="38" viewBox="0 0 38 38" fill="#fff" xmlns="http://www.w3.org/2000/svg">
<path d="M34.8334 28.5079C34.8334 29.3787 34.1272 30.0833 33.258 30.0833H20.5755C20.1576 30.0833 19.7569 29.9173 19.4615 29.6219C19.166 29.3264 19 28.9257 19 28.5079C19 28.0901 19.166 27.6894 19.4615 27.3939C19.7569 27.0985 20.1576 26.9325 20.5755 26.9325H33.258C33.6758 26.9325 34.0765 27.0985 34.3719 27.3939C34.6674 27.6894 34.8334 28.0901 34.8334 28.5079Z" fill="black"/>
<path d="M34.8334 19C34.8334 19.8708 34.1272 20.5754 33.258 20.5754L4.74212 20.5754C4.3243 20.5754 3.92358 20.4094 3.62813 20.114C3.33269 19.8185 3.1667 19.4178 3.1667 19C3.1667 18.5821 3.33269 18.1814 3.62813 17.886C3.92358 17.5905 4.3243 17.4245 4.74212 17.4245L33.258 17.4245C33.6758 17.4245 34.0765 17.5905 34.3719 17.886C34.6674 18.1814 34.8334 18.5821 34.8334 19Z" fill="black"/>
<path d="M33.258 11.0675C33.6758 11.0675 34.0765 10.9015 34.3719 10.6061C34.6674 10.3106 34.8334 9.90992 34.8334 9.49209C34.8334 9.07426 34.6674 8.67355 34.3719 8.3781C34.0765 8.08265 33.6758 7.91667 33.258 7.91667L14.2421 7.91667C13.8243 7.91667 13.4236 8.08265 13.1281 8.3781C12.8327 8.67355 12.6667 9.07426 12.6667 9.49209C12.6667 9.90992 12.8327 10.3106 13.1281 10.6061C13.4236 10.9015 13.8243 11.0675 14.2421 11.0675L33.258 11.0675Z" fill="black"/>
</svg>
